#!OML:ASF F:\VICON\USERDATA\INSTALL\rory3\rory3.ASF
:FULLY-SPECIFIED
:DEGREES
495
root -0.310881 29.0032 -2.61616 -172.062 -9.35306 -180.716
lowerback 6.42068 -0.256198 -5.63004
upperback -0.815497 -0.759464 0.787731
thorax -4.37473 -0.2304 4.06396
lowerneck -17.9364 2.99702 -8.74518
upperneck 37.2931 4.02078 1.27682
head 16.0945 -0.513107 2.51284
rclavicle 3.31722e-014 -1.09332e-014
rhumerus -32.9998 -5.1978 -80.6903
rradius 36.5719
rwrist 19.2028
rhand -24.3353 3.25766
rfingers 7.12502
rthumb 2.15351 -26.7112
lclavicle 3.31722e-014 -1.09332e-014
lhumerus -29.7408 3.89808 83.1372
lradius 39.0587
lwrist -0.991228
lhand -13.1643 27.1913
lfingers 7.12502
lthumb 12.9348 56.7704
rfemur -31.008 8.25294 11.5242
rtibia 49.4821
rfoot -16.0735 4.87801
rtoes -5.42562
lfemur -14.2443 -5.48171 -23.4735
ltibia 21.8275
lfoot -13.2085 -7.25542
ltoes -8.73623
496
root -0.287705 29.0047 -2.65639 -172.066 -9.94687 -180.64
lowerback 6.36191 -0.36679 -5.54397
upperback -0.754684 -0.889685 0.902803
thorax -4.26251 -0.3004 4.14678
lowerneck -18.0661 3.07519 -8.7206
upperneck 37.3807 4.19847 1.1644
head 16.1646 -0.457926 2.49537
rclavicle -1.75117e-014 4.47266e-016
rhumerus -32.9135 -5.38941 -80.5544
rradius 36.4934
rwrist 19.5297
rhand -24.4385 3.70617
rfingers 7.12502
rthumb 2.05389 -26.2637
lclavicle -1.75117e-014 4.47266e-016
lhumerus -29.6869 4.12672 83.2019
lradius 39.1967
lwrist -1.0992
lhand -13.0823 27.6068
lfingers 7.12502
lthumb 13.0138 57.1809
rfemur -31.0291 9.42754 11.0973
rtibia 47.915
rfoot -15.7286 6.18485
rtoes -5.28691
lfemur -14.1272 -5.75763 -23.2329
ltibia 21.7963
lfoot -13.2681 -7.53622
ltoes -8.52476
497
root -0.26482 29.0024 -2.69277 -172.09 -10.6257 -180.571
lowerback 6.39763 -0.418563 -5.35591
upperback -0.711284 -0.94406 0.929151
thorax -4.23309 -0.333489 4.07338
lowerneck -18.0963 3.01434 -8.66295
upperneck 37.431 4.08671 1.1971
head 16.2056 -0.489308 2.48294
rclavicle -9.36152e-015 -7.15625e-015
rhumerus -32.9052 -5.85437 -80.4583
rradius 36.3711
rwrist 19.6533
rhand -24.4044 3.48412
rfingers 7.12502
rthumb 2.0868 -26.4854
lclavicle -9.36152e-015 -7.15625e-015
lhumerus -29.554 3.7994 83.3049
lradius 39.1587
lwrist -0.898531
lhand -13.3471 27.6519
lfingers 7.12502
lthumb 12.7586 57.2421
rfemur -30.9784 10.5374 10.6541
rtibia 46.3273
rfoot -15.2238 7.79686
rtoes -4.42066
lfemur -13.9636 -6.01279 -23.0015
ltibia 21.6752
lfoot -13.2664 -7.90529
ltoes -8.60445
498
root -0.24293 28.9989 -2.73259 -172.05 -11.2463 -180.702
lowerback 6.36606 -0.565877 -5.4452
upperback -0.625237 -1.13946 1.04525
thorax -4.10018 -0.433404 4.26215
lowerneck -18.3842 3.02531 -8.9588
upperneck 37.4902 4.27652 1.20018
head 16.2879 -0.452419 2.57784
rclavicle 2.98201e-014 1.12783e-014
rhumerus -32.7202 -5.73938 -80.361
rradius 36.2955
rwrist 19.4651
rhand -24.1005 3.17864
rfingers 7.12502
rthumb 2.38031 -26.7878
lclavicle 2.98201e-014 1.12783e-014
lhumerus -29.3954 4.02199 83.4789
lradius 39.082
lwrist -0.870783
lhand -13.634 27.6559
lfingers 7.12502
lthumb 12.482 57.2632
rfemur -30.9554 11.5721 9.98849
rtibia 44.7272
rfoot -14.5186 9.59558
rtoes -3.88708
lfemur -13.8331 -6.31437 -22.9957
ltibia 21.5818
lfoot -13.3005 -8.20639
ltoes -8.36016
499
root -0.220664 28.9996 -2.77586 -172.057 -11.8751 -180.869
lowerback 6.37221 -0.59619 -5.5449
upperback -0.659888 -1.18783 1.05934
thorax -4.13241 -0.45301 4.33849
lowerneck -18.163 3.04522 -8.89511
upperneck 37.5419 4.30613 0.99323
head 16.2709 -0.472118 2.47513
rclavicle 6.50709e-015 -4.57205e-015
rhumerus -32.9309 -5.95417 -80.1995
rradius 36.1987
rwrist 19.3116
rhand -23.2081 2.42974
rfingers 7.12502
rthumb 3.2421 -27.5254
lclavicle 6.50709e-015 -4.57205e-015
lhumerus -29.4703 4.0501 83.6107
lradius 38.9457
lwrist -1.16988
lhand -13.8107 27.3812
lfingers 7.12502
lthumb 12.3116 56.9987
rfemur -30.8584 12.6979 9.30353
rtibia 43.1307
rfoot -13.7277 11.3506
rtoes -2.67961
lfemur -13.6767 -6.57855 -23.0378
ltibia 21.5551
lfoot -13.4119 -8.52266
ltoes -8.36882
500
root -0.194707 28.997 -2.82254 -172.092 -12.439 -180.911
lowerback 6.34721 -0.607883 -5.56081
upperback -0.567698 -1.1997 1.11553
thorax -4.01917 -0.464115 4.40556
lowerneck -18.2572 3.02451 -8.81438
upperneck 37.5776 4.3717 0.732148
head 16.3251 -0.471265 2.36205
rclavicle -3.05383e-014 -1.5207e-014
rhumerus -32.8054 -6.25186 -80.0621
rradius 35.9575
rwrist 19.3681
rhand -22.8969 2.17447
rfingers 7.12502
rthumb 3.54268 -27.7758
lclavicle -3.05383e-014 -1.5207e-014
lhumerus -29.3535 4.08987 83.7078
lradius 38.7772
lwrist -1.32507
lhand -13.9925 26.6463
lfingers 7.12502
lthumb 12.1364 56.2743
rfemur -30.7173 13.9715 8.7783
rtibia 41.5814
rfoot -12.8124 12.9017
rtoes -0.524432
lfemur -13.5288 -6.74911 -22.9381
ltibia 21.5563
lfoot -13.5381 -8.83388
ltoes -8.27276
501
root -0.170618 28.9942 -2.871 -172.12 -13.0581 -180.73
lowerback 6.21421 -0.631673 -5.33111
upperback -0.502524 -1.20163 1.2064
thorax -3.87797 -0.475233 4.36683
lowerneck -18.1622 3.05162 -8.68122
upperneck 37.5478 4.4351 0.541387
head 16.2959 -0.447551 2.26575
rclavicle -1.4238e-014 4.62174e-015
rhumerus -32.8116 -6.63011 -79.9517
rradius 35.8004
rwrist 19.498
rhand -23.1972 2.55249
rfingers 7.12502
rthumb 3.25263 -27.4024
lclavicle -1.4238e-014 4.62174e-015
lhumerus -29.3324 3.91545 83.7922
lradius 38.6905
lwrist -1.31229
lhand -13.9614 26.2302
lfingers 7.12502
lthumb 12.1663 55.8565
rfemur -30.5588 15.1731 8.52305
rtibia 40.0675
rfoot -11.8431 14.2962
rtoes 1.37907
lfemur -13.4639 -6.95746 -22.5883
ltibia 21.6039
lfoot -13.6834 -9.17015
ltoes -7.79531
502
root -0.144152 28.9899 -2.91575 -172.117 -13.9249 -180.646
lowerback 6.11052 -0.731475 -5.18423
upperback -0.444376 -1.31408 1.29895
thorax -3.74677 -0.538929 4.38709
lowerneck -18.0929 3.09416 -8.65732
upperneck 37.5242 4.52712 0.465367
head 16.2658 -0.40975 2.24479
rclavicle -1.73937e-014 -7.15625e-015
rhumerus -33.0036 -6.89156 -79.7961
rradius 35.7847
rwrist 19.62
rhand -22.9625 2.41187
rfingers 7.12502
rthumb 3.47934 -27.5395
lclavicle -1.73937e-014 -7.15625e-015
lhumerus -29.2266 3.81036 83.9034
lradius 38.5827
lwrist -1.33202
lhand -13.8489 26.0916
lfingers 7.12502
lthumb 12.2748 55.7113
rfemur -30.3171 16.0941 8.23486
rtibia 38.632
rfoot -10.8812 15.5546
rtoes 1.69409
lfemur -13.4714 -7.29381 -22.3008
ltibia 21.738
lfoot -13.7592 -9.64375
ltoes -7.20325
503
root -0.114676 28.9883 -2.95941 -172.082 -14.9845 -180.66
lowerback 6.04295 -0.890097 -5.13789
upperback -0.386339 -1.51479 1.40011
thorax -3.62382 -0.644272 4.48115
lowerneck -18.1878 3.04915 -8.88342
upperneck 37.6049 4.50576 0.632455
head 16.3185 -0.426901 2.35767
rclavicle -2.54196e-014 -6.26172e-015
rhumerus -33.1484 -6.95146 -79.6716
rradius 35.6953
rwrist 19.4958
rhand -22.7692 2.13452
rfingers 7.12502
rthumb 3.66597 -27.8137
lclavicle -2.54196e-014 -6.26172e-015
lhumerus -29.1487 3.69236 84.0512
lradius 38.5927
lwrist -1.28609
lhand -13.724 25.9922
lfingers 7.12502
lthumb 12.3953 55.6047
rfemur -30.0031 16.7312 7.93631
rtibia 37.3132
rfoot -9.99885 16.5877
rtoes 2.54102
lfemur -13.5129 -7.67399 -22.0887
ltibia 21.8575
lfoot -13.7994 -10.3184
ltoes -6.61214
